<svg version="1.1" id="Layer_1" xmlns="http://www.w3.org/2000/svg" xmlns:xlink="http://www.w3.org/1999/xlink" x="0px" y="0px"
	 width="100%" viewBox="0 0 709 352" enable-background="new 0 0 709 352" xml:space="preserve">
<path fill="none" opacity="0" stroke="none" 
	d="
M517.000000,353.000000 
	C344.707123,353.000000 172.914246,353.000000 1.060684,353.000000 
	C1.060684,235.734772 1.060684,118.469505 1.060684,1.102121 
	C237.209579,1.102121 473.419220,1.102121 709.814453,1.102121 
	C709.814453,118.333092 709.814453,235.666519 709.814453,353.000000 
	C645.802795,353.000000 581.651367,353.000000 517.000000,353.000000 
M551.664001,115.821587 
	C554.850769,115.821587 558.037537,115.821587 561.224243,115.821587 
	C561.206909,115.246529 561.189575,114.671471 561.172180,114.096413 
	C557.759033,114.096413 554.345825,114.096413 550.100098,113.987686 
	C544.733398,113.657272 539.366638,113.326866 533.097351,112.856216 
	C531.101746,112.892181 529.055542,113.233948 527.118774,112.913986 
	C515.434631,110.983772 511.021973,109.038078 512.638306,96.415443 
	C513.055298,93.158867 514.100220,92.309624 517.247070,92.336571 
	C533.905029,92.479240 550.564880,92.403488 567.224060,92.403435 
	C569.002869,92.403435 570.781677,92.403435 572.942566,92.403435 
	C573.883118,81.670265 574.773071,71.514488 575.696838,60.973141 
	C573.010681,60.973141 571.194641,60.972908 569.378662,60.973179 
	C540.558289,60.977482 511.736267,61.140141 482.918945,60.844219 
	C477.560028,60.789192 475.349518,62.015377 475.755463,67.540649 
	C475.971832,70.485191 475.269287,73.497009 474.983917,76.478691 
	C473.939941,87.386925 472.896942,98.295265 471.744202,110.347282 
	C461.574005,108.397141 451.765869,106.864113 442.154755,104.522461 
	C437.551025,103.400818 436.647369,99.439362 439.251404,95.400597 
	C440.601288,93.307053 442.250641,91.408028 443.740143,89.402893 
	C450.438171,80.386063 457.127380,71.362686 464.371826,61.597584 
	C453.407623,61.597584 443.468994,61.745090 433.539093,61.516010 
	C430.153076,61.437893 428.024109,62.557323 426.053070,65.230774 
	C416.564697,78.100586 406.962280,90.887627 397.251556,103.590271 
	C396.148987,105.032578 394.111755,105.760345 392.507904,106.819443 
	C391.258972,104.827026 389.259888,102.948372 388.936462,100.815613 
	C388.447906,97.593590 389.052643,94.188217 389.325348,90.871658 
	C390.125336,81.142181 390.990814,71.418076 391.863190,61.314651 
	C378.964233,61.314651 366.590881,61.314651 353.867645,61.314651 
	C352.845062,73.192383 351.742920,84.787605 350.879913,96.400597 
	C350.190887,105.671936 352.605865,108.708572 362.161682,111.199928 
	C365.775848,111.157013 369.390015,111.114105 373.940277,111.100456 
	C382.295746,111.320457 390.651245,111.540451 399.661835,112.238487 
	C405.442657,112.183540 411.223480,112.128586 417.939880,112.104019 
	C426.628510,112.328918 435.317139,112.553818 444.669617,113.239838 
	C449.781097,113.182953 454.892609,113.126068 460.939636,113.101433 
	C469.961761,113.325760 478.983856,113.550087 488.667664,114.235641 
	C493.446533,114.181190 498.225372,114.126740 503.939606,114.111038 
	C513.905640,114.328217 523.871704,114.545387 534.712891,115.159592 
	C540.061584,115.274879 545.410278,115.390160 551.664001,115.821587 
M156.254349,97.893875 
	C153.494980,99.233749 150.735611,100.573616 147.976242,101.913490 
	C148.132614,102.372154 148.288971,102.830826 148.445328,103.289497 
	C151.298721,102.837486 154.152100,102.385468 157.666870,102.052238 
	C158.108795,101.993530 158.550720,101.934830 159.590164,101.996346 
	C160.092438,101.741585 160.594711,101.486824 161.954041,101.127243 
	C163.630203,100.824951 165.306381,100.522659 167.480957,100.467773 
	C167.974792,100.277054 168.468613,100.086334 169.810806,100.015663 
	C171.195267,99.772545 172.579712,99.529434 174.471390,99.537552 
	C174.978241,99.349625 175.485092,99.161705 176.673660,99.068596 
	C177.113083,98.952385 177.552505,98.836174 178.731812,98.885864 
	C180.144333,98.564682 181.556854,98.243492 183.819305,98.039108 
	C185.207458,97.810081 186.595596,97.581062 188.498581,97.594330 
	C188.993668,97.380836 189.488739,97.167343 190.792709,97.070999 
	C191.857285,96.899025 192.921844,96.727051 194.609070,96.757408 
	C195.403702,96.498077 196.198334,96.238739 197.801300,96.093483 
	C198.865982,95.925102 199.930664,95.756721 201.808456,95.760834 
	C223.724350,92.772797 245.641449,89.793419 267.555817,86.794220 
	C288.484741,83.929893 309.424408,81.137093 330.320343,78.048599 
	C332.841400,77.675980 336.551819,76.162178 337.213470,74.293159 
	C338.628601,70.295647 338.408081,65.719109 338.900146,60.968117 
	C326.480560,60.968117 315.169952,61.130531 303.868439,60.881088 
	C299.846863,60.792324 298.131348,61.591179 297.662994,66.092567 
	C296.609070,76.221909 292.184448,80.060699 281.613373,80.854965 
	C282.008606,74.304405 282.399170,67.831635 282.812836,60.975800 
	C271.180328,60.975800 260.374420,60.971973 249.568512,60.977158 
	C242.402863,60.980595 242.474380,60.992237 241.880325,68.227608 
	C241.428375,73.732368 240.960785,79.424263 236.020874,83.040512 
	C228.112411,88.829887 218.847839,90.320435 209.691101,91.271103 
	C209.691101,84.845924 209.691101,78.921959 209.965958,72.350418 
	C209.942932,71.887146 209.919907,71.423866 210.362061,70.329796 
	C210.498383,68.523918 210.891006,66.687897 210.683395,64.922470 
	C210.538300,63.688629 209.572067,62.551365 208.071381,61.116364 
	C199.144699,61.092911 190.218002,61.049583 181.291321,61.050945 
	C169.676804,61.052723 169.676804,61.067993 169.641479,73.586639 
	C169.617599,74.737617 169.593735,75.888596 169.251907,77.881996 
	C169.169785,80.588249 169.087662,83.294510 168.626358,86.411873 
	C168.520203,86.945740 168.414047,87.479614 167.894714,88.477913 
	C167.617706,89.026588 167.340698,89.575264 166.445480,90.354347 
	C164.472855,92.176537 162.500244,93.998726 160.231293,95.767365 
	C160.231293,95.767365 160.005463,95.966568 159.411514,96.051033 
	C159.194550,96.381035 158.977585,96.711037 158.271942,97.179131 
	C157.847931,97.449448 157.423935,97.719765 156.254349,97.893875 
M277.207886,126.240105 
	C277.405243,124.094215 278.233398,122.262344 280.521851,124.086830 
	C283.410553,126.389847 286.979492,128.781448 288.251312,131.941299 
	C289.987518,136.254883 290.505737,141.350647 290.352325,146.072311 
	C290.028320,156.045792 288.896576,165.991638 288.160370,175.953568 
	C287.661804,182.700027 287.272522,189.454559 286.807648,196.616669 
	C300.432037,196.616669 313.468170,196.616669 326.742706,196.616669 
	C328.124939,181.079056 329.736084,165.866470 330.760742,150.614487 
	C331.734711,136.117508 325.148285,127.357925 310.661072,124.983047 
	C299.221191,123.107719 287.530457,122.762672 275.228790,121.313560 
	C274.130035,121.282593 273.031311,121.251625 271.284424,120.856636 
	C269.512421,120.765694 267.740387,120.674751 265.227264,120.202545 
	C264.127441,120.213676 263.027649,120.224808 261.278931,119.875481 
	C259.508026,119.801422 257.737122,119.727356 255.197876,119.270363 
	C253.777756,119.248024 252.357651,119.225685 250.315674,118.839211 
	C248.865479,118.801781 247.415298,118.764343 245.199356,118.334328 
	C243.775681,118.301270 242.352005,118.268211 240.309052,117.868591 
	C238.861130,117.840057 237.413223,117.811531 235.192139,117.402039 
	C233.767151,117.359062 232.342163,117.316086 230.297867,116.907913 
	C228.853806,116.872643 227.409729,116.837379 225.145248,116.458801 
	C223.076553,116.372002 221.007843,116.285202 218.361465,115.824936 
	C217.229553,115.815948 216.097626,115.806961 214.141754,115.463364 
	C212.070923,115.386024 210.000076,115.308693 207.244705,114.824036 
	C203.793304,114.498665 200.345032,114.134956 196.889969,113.854706 
	C183.583344,112.775337 170.274551,111.722679 156.346237,110.274139 
	C155.870361,110.272530 155.394470,110.270912 154.245880,109.899033 
	C151.819458,109.813179 149.393036,109.727318 146.235733,109.234665 
	C145.135452,109.232651 144.035187,109.230629 142.251587,108.867218 
	C139.396408,108.647057 136.541229,108.426903 133.686050,108.206741 
	C133.622437,108.452553 133.558807,108.698357 133.495193,108.944168 
	C136.332428,109.931534 139.169678,110.918900 142.497299,112.404388 
	C146.245575,114.637802 149.993851,116.871216 153.985352,119.722900 
	C155.283249,120.915558 156.581131,122.108208 158.032806,123.965866 
	C159.986572,128.301376 161.940338,132.636887 163.717606,137.468765 
	C163.843491,137.968109 163.969376,138.467453 163.904984,139.816879 
	C163.962677,141.552582 164.020355,143.288269 163.805527,145.645767 
	C163.808258,146.775223 163.810989,147.904694 163.400436,149.860229 
	C163.292694,153.248001 163.184967,156.635773 162.805557,160.481796 
	C162.821213,160.998535 162.836868,161.515259 162.448029,162.835892 
	C162.331299,165.233734 162.214584,167.631592 161.807770,170.480270 
	C161.825531,170.997406 161.843292,171.514542 161.487671,172.868088 
	C160.615982,180.718933 159.744293,188.569778 158.851807,196.608093 
	C172.242371,196.608093 185.108093,196.608093 198.723343,196.603851 
	C199.338409,190.394348 199.953461,184.184845 200.839981,177.329849 
	C200.831589,176.868179 200.823212,176.406525 201.191589,175.259888 
	C201.342529,172.499786 201.493454,169.739685 201.946274,166.341431 
	C201.914978,165.879288 201.883667,165.417160 202.186829,164.257904 
	C202.326233,161.830994 202.465637,159.404099 202.904221,156.258911 
	C202.884277,155.490280 202.864334,154.721664 203.165833,153.263672 
	C203.286942,151.166824 203.408035,149.069992 203.787109,146.325623 
	C203.788208,145.862762 203.789307,145.399902 204.618423,144.388290 
	C214.820297,144.565735 225.022186,144.743164 235.081741,145.805359 
	C234.896332,147.958115 234.705688,150.110428 234.526398,152.263702 
	C233.367416,166.181168 232.210922,180.098816 230.799484,194.482849 
	C231.206741,195.216858 231.613983,195.950867 232.919006,196.961014 
	C244.193344,196.961502 255.467758,196.981125 266.741974,196.944672 
	C268.751312,196.938171 271.474182,197.686813 271.313507,193.298019 
	C271.420898,190.525131 271.528290,187.752258 271.921021,184.340302 
	C271.906982,183.881027 271.892944,183.421768 272.268738,182.263763 
	C272.742981,175.836670 273.217194,169.409592 273.999481,162.344742 
	C273.952667,161.882141 273.905884,161.419556 274.186371,160.256012 
	C274.306671,157.828690 274.427002,155.401382 274.822723,152.248840 
	C274.828247,151.483078 274.833801,150.717300 275.157715,149.248245 
	C275.294647,146.823883 275.431580,144.399506 275.859589,141.208954 
	C275.862671,140.125916 275.865784,139.042877 276.218475,137.266830 
	C276.372131,134.838425 276.525787,132.410034 276.939392,129.252060 
	C276.910553,128.486313 276.881683,127.720573 277.207886,126.240105 
M342.386200,196.341278 
	C342.386200,196.341278 342.665405,196.622009 342.665405,196.622009 
	C342.665405,196.622009 343.044556,196.506607 343.936615,196.779694 
	C355.579529,196.709366 367.222443,196.639023 379.574951,196.563522 
	C379.810181,195.003494 380.045441,193.443466 380.547455,191.079819 
	C380.676727,189.382538 380.805969,187.685257 381.326233,185.581757 
	C381.253571,184.712234 381.180908,183.842697 381.257965,182.190323 
	C381.469910,179.454254 381.681854,176.718185 382.345428,173.423035 
	C382.331146,172.242889 382.316895,171.062729 382.570953,169.101532 
	C382.763611,160.308456 388.349182,155.777283 395.605591,152.515015 
	C399.010284,150.984360 400.913452,151.547333 402.244751,155.489288 
	C406.451935,167.946487 411.147125,180.238068 415.465240,192.659180 
	C416.563690,195.818863 418.147217,197.030563 421.608276,196.949707 
	C432.933289,196.685181 444.267120,196.807877 455.597321,196.742813 
	C457.018707,196.734650 458.438751,196.493927 460.471649,196.303650 
	C459.768402,194.066956 459.337402,192.343262 458.692902,190.703506 
	C454.428833,179.855270 450.017242,169.063828 445.863892,158.173721 
	C443.546204,152.096695 445.078308,146.785309 450.330292,144.502762 
	C456.049469,142.017212 462.180725,140.479858 469.353729,138.128784 
	C467.705292,158.425308 466.168213,177.350571 464.581329,196.888763 
	C467.344482,196.888763 469.301300,196.888885 471.258118,196.888748 
	C499.250946,196.886658 527.243774,196.884308 555.236633,196.882523 
	C563.445618,196.882004 563.589783,196.899063 564.481384,189.024170 
	C565.387329,181.023392 565.969299,172.985947 566.759705,164.227844 
	C546.458496,164.227844 526.908142,164.227844 506.981598,164.227844 
	C507.512451,158.571640 508.143097,153.637314 508.401337,148.683548 
	C508.789551,141.235153 512.472595,135.927704 519.090942,133.113251 
	C525.575806,130.355545 532.410583,128.420456 539.830566,126.192986 
	C541.048584,125.687210 542.266541,125.181427 543.484558,124.675652 
	C543.288086,124.199547 543.091553,123.723450 542.895020,123.247353 
	C540.284729,123.582085 537.674438,123.916809 534.303589,124.208763 
	C533.575439,124.406792 532.847290,124.604820 531.503235,124.484261 
	C530.684387,124.722763 529.865479,124.961266 528.365723,125.171562 
	C527.253601,125.403046 526.141479,125.634537 524.668579,125.534325 
	C524.125122,125.747307 523.581665,125.960281 522.235291,126.157875 
	C521.196655,126.381462 520.158081,126.605057 518.600830,126.508591 
	C518.077637,126.720840 517.554443,126.933098 516.231506,127.110405 
	C515.193726,127.316170 514.155884,127.521935 512.579407,127.442932 
	C512.062073,127.672913 511.544769,127.902885 510.228729,128.119080 
	C509.192657,128.325272 508.156586,128.531479 506.585419,128.454102 
	C506.065521,128.676971 505.545654,128.899841 504.299408,129.093018 
	C502.874756,129.357330 501.450073,129.621643 499.658478,129.566574 
	C499.126404,129.795242 498.594360,130.023895 497.253082,130.213654 
	C496.207458,130.436142 495.161835,130.658630 493.603577,130.564926 
	C493.082062,130.767181 492.560577,130.969437 491.287384,131.139725 
	C490.564911,131.324127 489.842438,131.508530 488.490784,131.417389 
	C487.676880,131.679611 486.863007,131.941833 485.363708,132.161575 
	C484.248260,132.416199 483.132782,132.670807 481.669006,132.594131 
	C481.124573,132.781494 480.580170,132.968842 479.281036,133.105988 
	C478.560730,133.306717 477.840454,133.507446 476.430145,133.430435 
	C475.309479,133.708679 474.188843,133.986923 472.387787,134.256058 
	C471.964996,134.410233 471.542236,134.564407 470.431946,134.440521 
	C469.303772,134.692551 468.175598,134.944580 466.373077,135.197479 
	C465.955292,135.354462 465.537506,135.511444 464.424805,135.396820 
	C463.300323,135.670029 462.175842,135.943222 460.379730,136.201538 
	C459.958771,136.344772 459.537842,136.488022 458.424591,136.362350 
	C457.294800,136.624374 456.165039,136.886398 454.283844,137.117874 
	C453.562439,137.305618 452.841034,137.493362 451.491974,137.382599 
	C450.669739,137.628067 449.847534,137.873520 448.226776,138.119095 
	C447.191071,138.331879 446.155396,138.544662 444.591125,138.460358 
	C444.068207,138.676285 443.545319,138.892212 442.188904,139.085876 
	C440.833160,139.320404 439.477448,139.554932 437.583923,139.502686 
	C437.073853,139.745483 436.563782,139.988297 435.250580,140.198441 
	C434.207245,140.395172 433.163879,140.591919 431.592377,140.498550 
	C431.072327,140.713806 430.552307,140.929062 429.229248,141.108307 
	C428.193268,141.334244 427.157257,141.560181 425.588989,141.495209 
	C425.071594,141.720154 424.554199,141.945114 423.231201,142.138397 
	C422.193817,142.371643 421.156403,142.604889 419.598907,142.534714 
	C419.076813,142.738464 418.554718,142.942200 417.227509,143.103973 
	C416.191925,143.336411 415.156342,143.568832 413.503845,143.490753 
	C412.690125,143.746445 411.876404,144.002136 410.304169,144.201035 
	C409.576599,144.392761 408.848999,144.584488 407.506744,144.470261 
	C406.683929,144.701416 405.861145,144.932571 404.282776,145.122681 
	C403.561920,145.324524 402.841064,145.526382 401.498047,145.440552 
	C400.676544,145.678421 399.855011,145.916290 398.275085,146.128464 
	C397.557495,146.349518 396.839935,146.570587 395.509216,146.482788 
	C394.682098,146.694916 393.855011,146.907028 392.272888,147.092682 
	C391.554657,147.300659 390.836395,147.508636 389.426178,147.433716 
	C388.307312,147.712402 387.188477,147.991104 385.393707,148.249298 
	C384.968292,148.388077 384.542908,148.526871 383.424652,148.389847 
	C382.298737,148.658127 381.172791,148.926392 379.291840,149.173218 
	C378.567444,149.364899 377.843079,149.556580 376.496063,149.438858 
	C375.677704,149.686874 374.859375,149.934891 373.237244,150.167725 
	C372.197113,150.389709 371.156982,150.611694 369.512695,150.491913 
	C368.697632,150.748840 367.882568,151.005783 366.261871,151.217682 
	C365.214874,151.416321 364.167847,151.614975 362.590363,151.515045 
	C362.074371,151.741577 361.558411,151.968124 360.240143,152.164062 
	C359.199402,152.371658 358.158630,152.579254 356.595367,152.474731 
	C356.073090,152.691116 355.550781,152.907501 354.333191,153.080826 
	C353.208435,153.328476 352.083649,153.576126 350.371429,153.842697 
	C350.065918,154.076035 349.760406,154.309372 348.865143,154.658508 
	C348.176147,155.327423 347.487183,155.996338 346.338257,156.976883 
	C346.244141,157.322510 346.150024,157.668152 345.673187,158.735962 
	C345.146729,164.495972 344.620270,170.255981 343.672272,176.402618 
	C343.709961,177.286545 343.747650,178.170456 343.628265,179.829422 
	C343.440155,182.555191 343.252014,185.280975 342.687653,188.310654 
	C342.738678,188.887222 342.789703,189.463776 342.691498,190.778702 
	C342.628296,192.506302 342.565094,194.233902 342.386200,196.341278 
M336.342957,235.191177 
	C333.971680,230.992661 331.680969,226.745178 329.177216,222.627213 
	C328.478699,221.478333 327.220306,220.011307 326.098724,219.900040 
	C322.555054,219.548508 318.954498,219.770309 315.184692,219.770309 
	C314.313843,234.861160 313.485291,249.219131 312.654572,263.614563 
	C316.521515,263.614563 319.631348,263.614563 323.133545,263.614563 
	C323.713531,255.650864 324.278381,247.894836 324.950287,238.668732 
	C328.962372,246.052261 332.577789,251.829895 335.303680,258.000488 
	C337.470001,262.904388 340.541534,264.443420 345.670197,263.994965 
	C348.695618,263.730438 349.665039,262.817566 349.765686,259.899567 
	C350.040924,251.923294 350.551971,243.954880 350.994202,235.984711 
	C351.285645,230.732819 351.619659,225.483292 351.945068,220.058380 
	C348.090576,220.058380 344.847382,220.058380 341.361877,220.058380 
	C340.918030,226.934906 340.492859,233.521881 339.973816,241.563095 
	C338.355621,238.705399 337.547913,237.278976 336.342957,235.191177 
M303.155945,219.732407 
	C300.530792,219.732407 297.905640,219.732407 294.794464,219.732407 
	C294.357910,225.304855 293.949921,230.512527 293.550873,235.606232 
	C289.981110,235.606232 286.930359,235.606232 283.941040,235.606232 
	C283.941040,230.143799 283.941040,225.096069 283.941040,219.997345 
	C279.629578,219.997345 275.698822,219.997345 271.368713,219.997345 
	C270.481750,234.589523 269.609497,248.939972 268.725800,263.479065 
	C273.383606,263.479065 277.413666,263.479065 281.574799,263.479065 
	C282.069672,257.717529 282.532623,252.327225 282.980743,247.109863 
	C286.568756,247.109863 289.633209,247.109863 292.996613,247.109863 
	C292.631836,252.753922 292.292877,257.998871 291.935394,263.530640 
	C296.550964,263.530640 300.595490,263.530640 304.978638,263.530640 
	C305.797119,251.122437 306.597839,239.026321 307.389008,226.929565 
	C307.475861,225.601425 307.410767,224.256744 307.585724,222.942291 
	C307.969177,220.061142 306.378052,219.499252 303.155945,219.732407 
M494.698853,250.332321 
	C494.958008,244.618286 494.815338,238.839813 495.715271,233.228546 
	C495.993805,231.491791 499.076294,229.100342 500.932404,229.048035 
	C502.610535,229.000763 504.422974,231.679031 506.057281,233.276978 
	C506.593811,233.801575 506.758392,234.706604 507.168457,235.602402 
	C511.206360,235.158264 515.092834,234.730774 519.198303,234.279175 
	C518.548218,227.455154 515.544556,223.007156 509.903687,220.547607 
	C499.721161,216.107742 488.025055,220.310272 483.084656,230.254547 
	C479.881470,236.702042 478.996155,243.582367 480.584229,250.648132 
	C482.711914,260.114899 489.370117,265.269775 499.017609,264.318054 
	C502.645172,263.960205 506.126099,262.115509 508.672363,261.278046 
	C511.685211,262.426270 514.300232,263.422852 517.683533,264.712311 
	C518.219666,255.341995 518.669495,247.480484 519.148254,239.113007 
	C515.475403,239.113007 512.515930,239.113022 509.556427,239.113022 
	C506.450073,239.113022 503.343719,239.113007 500.076569,239.113007 
	C499.788574,242.448990 499.551392,245.196121 499.295197,248.163361 
	C501.719238,248.452301 503.774109,248.697220 505.908234,248.951599 
	C503.734894,255.029877 499.710449,255.699860 494.698853,250.332321 
M440.062256,227.579834 
	C435.303986,234.583466 433.963257,242.254868 435.944336,250.421814 
	C438.045685,259.084656 444.721313,264.278229 453.605347,264.481995 
	C466.106934,264.768707 474.366394,256.691376 476.003845,242.577499 
	C477.203796,232.234650 473.157013,224.022598 465.160156,220.572723 
	C456.738159,216.939453 446.908203,219.489655 440.062256,227.579834 
M390.104675,258.611450 
	C396.758240,251.657440 398.358582,243.236816 396.853607,234.107315 
	C395.569611,226.318100 390.170227,221.073364 382.417755,219.483139 
	C368.857086,216.701508 358.665283,225.152695 356.631836,240.865219 
	C355.412567,250.286453 359.030853,258.640076 365.931732,262.336182 
	C373.256348,266.259247 382.489807,265.002472 390.104675,258.611450 
M215.271423,246.048203 
	C216.733017,245.966019 218.194626,245.883820 219.921555,245.786728 
	C220.152512,242.571335 220.360123,239.680893 220.611496,236.181122 
	C215.091171,236.181122 210.184052,236.181122 204.930801,236.181122 
	C205.158249,233.818283 205.327072,232.064621 205.531189,229.944244 
	C209.396332,229.944244 212.858871,229.999542 216.319107,229.933731 
	C226.239365,229.745071 224.110886,231.521317 225.126251,221.466309 
	C225.169769,221.035294 224.851715,220.567764 224.648605,219.956116 
	C214.190979,219.956116 203.776337,219.956116 192.929688,219.956116 
	C192.130554,234.643631 191.342575,249.125854 190.559448,263.519043 
	C201.724869,263.519043 211.974319,263.519043 222.591339,263.519043 
	C222.591339,260.108917 222.591339,257.041809 222.591339,253.429077 
	C219.513199,253.429077 216.546204,253.429062 213.579224,253.429062 
	C210.479828,253.429062 207.380447,253.429077 203.939026,253.429077 
	C204.147903,250.627106 204.302872,248.548218 204.489197,246.048782 
	C208.080215,246.048782 211.209839,246.048782 215.271423,246.048203 
M227.537949,240.956482 
	C227.590256,243.610031 227.417145,246.291031 227.736221,248.912109 
	C228.784775,257.525543 234.434647,263.436188 242.232895,264.334839 
	C252.160858,265.478943 260.022552,261.192719 263.195343,252.812531 
	C263.739380,251.375610 263.931915,249.805603 264.422089,247.722061 
	C258.868896,248.204971 253.089233,244.557587 250.432663,252.229950 
	C250.039780,253.364639 246.780472,254.479233 245.343735,254.026794 
	C243.658234,253.496017 241.466095,251.326660 241.336517,249.719437 
	C240.967407,245.141205 241.238251,240.449081 241.831909,235.876373 
	C242.263138,232.554642 243.559097,229.044968 247.851547,229.149277 
	C252.336700,229.258286 252.758301,232.848709 253.089508,236.291168 
	C253.115173,236.557953 253.452438,236.794769 253.882462,237.355011 
	C257.414825,237.106064 261.147491,236.842987 264.824402,236.583847 
	C265.037170,226.630569 260.352997,220.807999 251.372269,219.287918 
	C238.794601,217.159012 229.364319,225.422745 227.537949,240.956482 
M539.361206,263.866974 
	C540.976501,263.785370 542.591858,263.703796 545.415527,263.561157 
	C541.394592,246.091690 552.848511,234.063248 560.153198,220.450211 
	C550.206299,218.538483 549.749268,218.746216 545.432251,226.464096 
	C544.178345,228.705887 542.850220,230.906128 541.072449,233.954865 
	C538.630371,228.898911 537.644897,223.304550 534.367920,221.068542 
	C531.055176,218.808136 525.472595,219.874191 519.906677,219.399689 
	C523.999146,227.581970 527.099915,234.578003 530.901672,241.169724 
	C535.121033,248.485367 530.339966,256.182953 532.517151,263.867554 
	C534.511169,263.867554 536.474243,263.867554 539.361206,263.866974 
M415.910950,252.341431 
	C415.910950,241.624634 415.910950,230.907837 415.910950,220.083130 
	C412.625916,220.083130 408.572754,220.083130 404.305542,220.083130 
	C403.427704,234.761108 402.570312,249.096603 401.710388,263.475037 
	C412.185150,263.475037 421.885986,263.475037 431.919373,263.475037 
	C431.919373,259.832520 431.919373,256.590454 431.919373,252.931427 
	C426.627014,252.931427 421.654449,252.931427 415.910950,252.341431 
M163.831589,230.225357 
	C167.248077,229.772751 167.067947,232.053879 166.947693,234.309067 
	C166.429718,244.022507 165.918839,253.736328 165.403061,263.493958 
	C169.703903,263.493958 173.425476,263.493958 177.493408,263.493958 
	C178.238525,252.287277 178.961670,241.410919 179.689545,230.463715 
	C182.826065,230.283234 185.431931,230.133270 188.448914,229.959656 
	C188.630600,226.528336 188.799576,223.337143 188.975769,220.009689 
	C178.678513,220.009689 168.956833,220.009689 158.957565,220.009689 
	C158.706787,223.357727 158.474838,226.454346 158.212219,229.960480 
	C160.056824,230.063293 161.495132,230.143463 163.831589,230.225357 
z"/>
<path fill="#F6B925" opacity="1.000000" stroke="none" 
	d="
M432.120544,140.788635 
	C433.163879,140.591919 434.207245,140.395172 435.792664,140.399994 
	C436.930389,140.330856 437.526031,140.060165 438.121704,139.789459 
	C439.477448,139.554932 440.833160,139.320404 442.739136,139.296143 
	C443.899475,139.256760 444.509583,139.007095 445.119690,138.757446 
	C446.155396,138.544662 447.191071,138.331879 448.802612,138.343262 
	C450.292206,138.271988 451.205902,137.976547 452.119629,137.681122 
	C452.841034,137.493362 453.562439,137.305618 454.870972,137.364136 
	C456.677704,137.284027 457.897278,136.957626 459.116882,136.631256 
	C459.537842,136.488022 459.958771,136.344772 460.930542,136.432922 
	C462.694153,136.332336 463.906921,136.000381 465.119720,135.668427 
	C465.537506,135.511444 465.955292,135.354462 466.924622,135.419312 
	C468.690613,135.333618 469.905029,135.026093 471.119446,134.718567 
	C471.542236,134.564407 471.964996,134.410233 472.946991,134.473694 
	C474.710846,134.363617 475.915497,134.035889 477.120148,133.708160 
	C477.840454,133.507446 478.560730,133.306717 479.817322,133.340240 
	C480.908203,133.358139 481.462769,133.141800 482.017334,132.925430 
	C483.132782,132.670807 484.248260,132.416199 485.888947,132.394775 
	C487.316101,132.316299 488.218018,132.004608 489.119965,131.692932 
	C489.842438,131.508530 490.564911,131.324127 491.795471,131.344879 
	C492.907776,131.327057 493.511993,131.104095 494.116211,130.881119 
	C495.161835,130.658630 496.207458,130.436142 497.827148,130.430206 
	C498.942627,130.393143 499.484009,130.139542 500.025421,129.885956 
	C501.450073,129.621643 502.874756,129.357330 504.798706,129.304901 
	C505.905518,129.257080 506.513000,128.997375 507.120514,128.737686 
	C508.156586,128.531479 509.192657,128.325272 510.764374,128.323608 
	C511.906036,128.261307 512.512085,127.994507 513.118103,127.727699 
	C514.155884,127.521935 515.193726,127.316170 516.763489,127.323074 
	C517.903442,127.300049 518.511475,127.064346 519.119446,126.828651 
	C520.158081,126.605057 521.196655,126.381462 522.802002,126.372559 
	C523.922241,126.346832 524.475769,126.106422 525.029358,125.866013 
	C526.141479,125.634537 527.253601,125.403046 528.882568,125.397568 
	C530.306030,125.349998 531.212585,125.076416 532.119141,124.802841 
	C532.847290,124.604820 533.575439,124.406792 534.922974,124.457977 
	C536.725464,125.179565 537.908569,125.651939 539.091736,126.124313 
	C532.410583,128.420456 525.575806,130.355545 519.090942,133.113251 
	C512.472595,135.927704 508.789551,141.235153 508.401337,148.683548 
	C508.143097,153.637314 507.512451,158.571640 506.981598,164.227844 
	C526.908142,164.227844 546.458496,164.227844 566.759705,164.227844 
	C565.969299,172.985947 565.387329,181.023392 564.481384,189.024170 
	C563.589783,196.899063 563.445618,196.882004 555.236633,196.882523 
	C527.243774,196.884308 499.250946,196.886658 471.258118,196.888748 
	C469.301300,196.888885 467.344482,196.888763 464.581329,196.888763 
	C466.168213,177.350571 467.705292,158.425308 469.353729,138.128784 
	C462.180725,140.479858 456.049469,142.017212 450.330292,144.502762 
	C445.078308,146.785309 443.546204,152.096695 445.863892,158.173721 
	C450.017242,169.063828 454.428833,179.855270 458.692902,190.703506 
	C459.337402,192.343262 459.768402,194.066956 460.471649,196.303650 
	C458.438751,196.493927 457.018707,196.734650 455.597321,196.742813 
	C444.267120,196.807877 432.933289,196.685181 421.608276,196.949707 
	C418.147217,197.030563 416.563690,195.818863 415.465240,192.659180 
	C411.147125,180.238068 406.451935,167.946487 402.244751,155.489288 
	C400.913452,151.547333 399.010284,150.984360 395.605591,152.515015 
	C388.349182,155.777283 382.763611,160.308456 382.177185,169.636444 
	C381.820190,171.441605 381.857025,172.711853 381.893829,173.982117 
	C381.681854,176.718185 381.469910,179.454254 380.924011,182.752991 
	C380.705139,184.206436 380.820190,185.097198 380.935242,185.987976 
	C380.805969,187.685257 380.676727,189.382538 380.144958,191.640167 
	C379.450104,193.656570 379.157715,195.112625 378.865356,196.568680 
	C367.222443,196.639023 355.579529,196.709366 343.433289,196.523880 
	C342.822174,196.117142 342.679474,196.014954 342.501892,195.961502 
	C342.565094,194.233902 342.628296,192.506302 343.009552,190.281326 
	C343.239685,189.191544 343.151794,188.599152 343.063904,188.006744 
	C343.252014,185.280975 343.440155,182.555191 343.983856,179.283173 
	C344.257538,177.829956 344.175659,176.922974 344.093750,176.015991 
	C344.620270,170.255981 345.146729,164.495972 346.097656,158.222900 
	C346.614136,157.361649 346.706177,157.013458 346.798218,156.665253 
	C347.487183,155.996338 348.176147,155.327423 349.472961,154.652802 
	C350.373505,154.372665 350.666199,154.098221 350.958893,153.823792 
	C352.083649,153.576126 353.208435,153.328476 354.812775,153.299484 
	C355.900879,153.274384 356.509369,153.030609 357.117889,152.786835 
	C358.158630,152.579254 359.199402,152.371658 360.778351,152.368347 
	C361.917999,152.319641 362.519409,152.066635 363.120850,151.813629 
	C364.167847,151.614975 365.214874,151.416321 366.845276,151.440781 
	C368.324768,151.387146 369.220795,151.110413 370.116852,150.833679 
	C371.156982,150.611694 372.197113,150.389709 373.817230,150.389130 
	C375.304382,150.323120 376.211517,150.035706 377.118683,149.748276 
	C377.843079,149.556580 378.567444,149.364899 379.883240,149.407623 
	C381.688965,149.316589 382.903229,148.991135 384.117523,148.665680 
	C384.542908,148.526871 384.968292,148.388077 385.950043,148.471558 
	C387.710297,148.368073 388.914246,148.042343 390.118164,147.716614 
	C390.836395,147.508636 391.554657,147.300659 392.822693,147.329041 
	C394.289093,147.307495 395.205719,147.049576 396.122345,146.791656 
	C396.839935,146.570587 397.557495,146.349518 398.832611,146.359085 
	C400.300171,146.302551 401.210175,146.015396 402.120209,145.728241 
	C402.841064,145.526382 403.561920,145.324524 404.836975,145.358734 
	C406.301270,145.321915 407.211365,145.049057 408.121429,144.776215 
	C408.848999,144.584488 409.576599,144.392761 410.864868,144.434433 
	C412.323975,144.378983 413.222351,144.090134 414.120758,143.801270 
	C415.156342,143.568832 416.191925,143.336411 417.762543,143.317978 
	C418.904724,143.300705 419.511871,143.069443 420.119019,142.838165 
	C421.156403,142.604889 422.193817,142.371643 423.770599,142.346558 
	C424.913757,142.298508 425.517517,142.042297 426.121277,141.786102 
	C427.157257,141.560181 428.193268,141.334244 429.765381,141.320435 
	C430.907867,141.284592 431.514191,141.036621 432.120544,140.788635 
z"/>
<path fill="#090909" opacity="1.000000" stroke="none" 
	d="
M488.005981,113.774414 
	C478.983856,113.550087 469.961761,113.325760 460.140411,112.850021 
	C454.229370,112.658653 449.117584,112.718689 444.005768,112.778725 
	C435.317139,112.553818 426.628510,112.328918 417.140259,111.852554 
	C410.562683,111.654213 404.784698,111.707329 399.006714,111.760452 
	C390.651245,111.540451 382.295746,111.320457 373.141174,110.850403 
	C368.772858,110.628311 365.203644,110.656265 361.634460,110.684219 
	C352.605865,108.708572 350.190887,105.671936 350.879913,96.400597 
	C351.742920,84.787605 352.845062,73.192383 353.867645,61.314651 
	C366.590881,61.314651 378.964233,61.314651 391.863190,61.314651 
	C390.990814,71.418076 390.125336,81.142181 389.325348,90.871658 
	C389.052643,94.188217 388.447906,97.593590 388.936462,100.815613 
	C389.259888,102.948372 391.258972,104.827026 392.507904,106.819443 
	C394.111755,105.760345 396.148987,105.032578 397.251556,103.590271 
	C406.962280,90.887627 416.564697,78.100586 426.053070,65.230774 
	C428.024109,62.557323 430.153076,61.437893 433.539093,61.516010 
	C443.468994,61.745090 453.407623,61.597584 464.371826,61.597584 
	C457.127380,71.362686 450.438171,80.386063 443.740143,89.402893 
	C442.250641,91.408028 440.601288,93.307053 439.251404,95.400597 
	C436.647369,99.439362 437.551025,103.400818 442.154755,104.522461 
	C451.765869,106.864113 461.574005,108.397141 471.744202,110.347282 
	C472.896942,98.295265 473.939941,87.386925 474.983917,76.478691 
	C475.269287,73.497009 475.971832,70.485191 475.755463,67.540649 
	C475.349518,62.015377 477.560028,60.789192 482.918945,60.844219 
	C511.736267,61.140141 540.558289,60.977482 569.378662,60.973179 
	C571.194641,60.972908 573.010681,60.973141 575.696838,60.973141 
	C574.773071,71.514488 573.883118,81.670265 572.942566,92.403435 
	C570.781677,92.403435 569.002869,92.403435 567.224060,92.403435 
	C550.564880,92.403488 533.905029,92.479240 517.247070,92.336571 
	C514.100220,92.309624 513.055298,93.158867 512.638306,96.415443 
	C511.021973,109.038078 515.434631,110.983772 527.118774,112.913986 
	C529.055542,113.233948 531.101746,112.892181 533.509888,113.223114 
	C533.894287,113.980858 533.866028,114.371704 533.837769,114.762558 
	C523.871704,114.545387 513.905640,114.328217 503.142700,113.854736 
	C497.565826,113.657089 492.785919,113.715752 488.005981,113.774414 
z"/>
<path fill="#040404" opacity="1.000000" stroke="none" 
	d="
M202.844360,153.953033 
	C202.864334,154.721664 202.884277,155.490280 202.408081,156.731201 
	C201.892075,159.787323 201.872223,162.371170 201.852356,164.955017 
	C201.883667,165.417160 201.914978,165.879288 201.440826,166.773727 
	C200.895203,170.118973 200.855011,173.031906 200.814819,175.944855 
	C200.823212,176.406525 200.831589,176.868179 200.346985,177.782318 
	C199.227249,184.359222 198.600525,190.483658 197.973801,196.608093 
	C185.108093,196.608093 172.242371,196.608093 158.851807,196.608093 
	C159.744293,188.569778 160.615982,180.718933 161.891724,172.360382 
	C162.229797,171.244934 162.163818,170.637192 162.097870,170.029434 
	C162.214584,167.631592 162.331299,165.233734 162.869797,162.344849 
	C163.220123,161.243713 163.148666,160.633636 163.077225,160.023544 
	C163.184967,156.635773 163.292694,153.248001 163.871979,149.309570 
	C164.255035,147.513931 164.166534,146.268951 164.078033,145.023972 
	C164.020355,143.288269 163.962677,141.552582 164.201294,139.275589 
	C164.296417,138.147003 164.095261,137.559692 163.894089,136.972397 
	C161.940338,132.636887 159.986572,128.301376 157.974411,123.259689 
	C156.524719,121.403885 155.133423,120.254257 153.742126,119.104622 
	C149.993851,116.871216 146.245575,114.637802 142.284439,111.869896 
	C142.359344,110.633133 142.647125,109.930870 142.934906,109.228607 
	C144.035187,109.230629 145.135452,109.232651 146.748474,109.756271 
	C149.813690,110.275017 152.366135,110.272156 154.918594,110.269302 
	C155.394470,110.270912 155.870361,110.272530 156.824524,110.795517 
	C157.899200,111.542465 158.481079,111.909767 159.094131,111.972427 
	C169.043625,112.989563 178.983215,114.157478 188.954651,114.886528 
	C195.254242,115.347122 201.602707,115.139343 207.929245,115.231354 
	C210.000076,115.308693 212.070923,115.386024 214.683044,115.895767 
	C216.462616,116.284920 217.700882,116.241661 218.939148,116.198402 
	C221.007843,116.285202 223.076553,116.372002 225.699219,116.905075 
	C227.807846,117.325264 229.362518,117.299187 230.917175,117.273117 
	C232.342163,117.316086 233.767151,117.359062 235.720322,117.870819 
	C237.808441,118.304787 239.368393,118.269974 240.928329,118.235153 
	C242.352005,118.268211 243.775681,118.301270 245.716202,118.816765 
	C247.801208,119.267250 249.369370,119.235298 250.937531,119.203354 
	C252.357651,119.225685 253.777756,119.248024 255.716675,119.764694 
	C258.132935,120.251328 260.030365,120.243629 261.927826,120.235931 
	C263.027649,120.224808 264.127441,120.213676 265.721191,120.705025 
	C268.120911,121.211891 270.026733,121.216270 271.932556,121.220657 
	C273.031311,121.251625 274.130035,121.282593 275.598541,121.872574 
	C276.263123,123.939339 276.557983,125.447083 276.852844,126.954834 
	C276.881683,127.720573 276.910553,128.486313 276.456482,129.721832 
	C275.938660,132.781021 275.903778,135.370438 275.868896,137.959839 
	C275.865784,139.042877 275.862671,140.125916 275.370941,141.709625 
	C274.867981,144.790710 274.853668,147.371124 274.839325,149.951538 
	C274.833801,150.717300 274.828247,151.483078 274.343628,152.731873 
	C273.862701,155.795578 273.860901,158.376266 273.859100,160.956955 
	C273.905884,161.419556 273.952667,161.882141 273.477295,162.778259 
	C272.596375,169.795364 272.237640,176.378922 271.878906,182.962494 
	C271.892944,183.421768 271.906982,183.881027 271.423645,184.774170 
	C270.913086,188.127045 270.899902,191.046036 270.886719,193.965027 
	C271.474182,197.686813 268.751312,196.938171 266.741974,196.944672 
	C255.467758,196.981125 244.193344,196.961502 232.476059,196.519257 
	C231.706619,195.390472 231.380112,194.703445 231.053619,194.016418 
	C232.210922,180.098816 233.367416,166.181168 234.526398,152.263702 
	C234.705688,150.110428 234.896332,147.958115 235.359741,145.091003 
	C235.261627,143.935150 234.888809,143.111221 234.508957,143.107956 
	C224.602539,143.022873 214.695236,143.003860 204.789093,143.089630 
	C204.450897,143.092545 204.123062,144.294159 203.790405,144.937042 
	C203.789307,145.399902 203.788208,145.862762 203.324371,146.765274 
	C202.855881,149.454300 202.850128,151.703659 202.844360,153.953033 
z"/>
<path fill="#101010" opacity="1.000000" stroke="none" 
	d="
M277.030365,126.597473 
	C276.557983,125.447083 276.263123,123.939339 275.959717,122.084801 
	C287.530457,122.762672 299.221191,123.107719 310.661072,124.983047 
	C325.148285,127.357925 331.734711,136.117508 330.760742,150.614487 
	C329.736084,165.866470 328.124939,181.079056 326.742706,196.616669 
	C313.468170,196.616669 300.432037,196.616669 286.807648,196.616669 
	C287.272522,189.454559 287.661804,182.700027 288.160370,175.953568 
	C288.896576,165.991638 290.028320,156.045792 290.352325,146.072311 
	C290.505737,141.350647 289.987518,136.254883 288.251312,131.941299 
	C286.979492,128.781448 283.410553,126.389847 280.521851,124.086830 
	C278.233398,122.262344 277.405243,124.094215 277.030365,126.597473 
z"/>
<path fill="#F6BA2A" opacity="1.000000" stroke="none" 
	d="
M209.691101,72.998001 
	C209.691101,78.921959 209.691101,84.845924 209.691101,91.271103 
	C218.847839,90.320435 228.112411,88.829887 236.020874,83.040512 
	C240.960785,79.424263 241.428375,73.732368 241.880325,68.227608 
	C242.474380,60.992237 242.402863,60.980595 249.568512,60.977158 
	C260.374420,60.971973 271.180328,60.975800 282.812836,60.975800 
	C282.399170,67.831635 282.008606,74.304405 281.613373,80.854965 
	C292.184448,80.060699 296.609070,76.221909 297.662994,66.092567 
	C298.131348,61.591179 299.846863,60.792324 303.868439,60.881088 
	C315.169952,61.130531 326.480560,60.968117 338.900146,60.968117 
	C338.408081,65.719109 338.628601,70.295647 337.213470,74.293159 
	C336.551819,76.162178 332.841400,77.675980 330.320343,78.048599 
	C309.424408,81.137093 288.484741,83.929893 267.555817,86.794220 
	C245.641449,89.793419 223.724350,92.772797 201.457031,95.351639 
	C202.739441,93.884880 204.373260,92.827316 206.543854,91.422325 
	C206.962433,87.310745 207.391266,82.205597 208.057022,77.131523 
	C208.243973,75.706741 209.127228,74.373329 209.691101,72.998001 
z"/>
<path fill="#0E0E0E" opacity="1.000000" stroke="none" 
	d="
M336.541565,235.521851 
	C337.547913,237.278976 338.355621,238.705399 339.973816,241.563095 
	C340.492859,233.521881 340.918030,226.934906 341.361877,220.058380 
	C344.847382,220.058380 348.090576,220.058380 351.945068,220.058380 
	C351.619659,225.483292 351.285645,230.732819 350.994202,235.984711 
	C350.551971,243.954880 350.040924,251.923294 349.765686,259.899567 
	C349.665039,262.817566 348.695618,263.730438 345.670197,263.994965 
	C340.541534,264.443420 337.470001,262.904388 335.303680,258.000488 
	C332.577789,251.829895 328.962372,246.052261 324.950287,238.668732 
	C324.278381,247.894836 323.713531,255.650864 323.133545,263.614563 
	C319.631348,263.614563 316.521515,263.614563 312.654572,263.614563 
	C313.485291,249.219131 314.313843,234.861160 315.184692,219.770309 
	C318.954498,219.770309 322.555054,219.548508 326.098724,219.900040 
	C327.220306,220.011307 328.478699,221.478333 329.177216,222.627213 
	C331.680969,226.745178 333.971680,230.992661 336.541565,235.521851 
z"/>
<path fill="#0F0F0F" opacity="1.000000" stroke="none" 
	d="
M303.587036,219.732651 
	C306.378052,219.499252 307.969177,220.061142 307.585724,222.942291 
	C307.410767,224.256744 307.475861,225.601425 307.389008,226.929565 
	C306.597839,239.026321 305.797119,251.122437 304.978638,263.530640 
	C300.595490,263.530640 296.550964,263.530640 291.935394,263.530640 
	C292.292877,257.998871 292.631836,252.753922 292.996613,247.109863 
	C289.633209,247.109863 286.568756,247.109863 282.980743,247.109863 
	C282.532623,252.327225 282.069672,257.717529 281.574799,263.479065 
	C277.413666,263.479065 273.383606,263.479065 268.725800,263.479065 
	C269.609497,248.939972 270.481750,234.589523 271.368713,219.997345 
	C275.698822,219.997345 279.629578,219.997345 283.941040,219.997345 
	C283.941040,225.096069 283.941040,230.143799 283.941040,235.606232 
	C286.930359,235.606232 289.981110,235.606232 293.550873,235.606232 
	C293.949921,230.512527 294.357910,225.304855 294.794464,219.732407 
	C297.905640,219.732407 300.530792,219.732407 303.587036,219.732651 
z"/>
<path fill="#F7B81F" opacity="1.000000" stroke="none" 
	d="
M209.828522,72.674210 
	C209.127228,74.373329 208.243973,75.706741 208.057022,77.131523 
	C207.391266,82.205597 206.962433,87.310745 206.543854,91.422325 
	C204.373260,92.827316 202.739441,93.884880 201.050476,95.265388 
	C199.930664,95.756721 198.865982,95.925102 197.218964,95.793854 
	C195.753220,95.847847 194.869812,96.201462 193.986420,96.555077 
	C192.921844,96.727051 191.857285,96.899025 190.253967,96.804077 
	C189.138062,96.808784 188.560898,97.080406 187.983749,97.352036 
	C186.595596,97.581062 185.207458,97.810081 183.159729,97.724289 
	C180.997406,97.846298 179.494659,98.283127 177.991928,98.719963 
	C177.552505,98.836174 177.113083,98.952385 176.226608,98.804962 
	C175.578140,98.275879 175.318085,98.094490 174.952087,97.604576 
	C174.257919,94.542336 173.611053,91.872681 172.870682,88.817184 
	C170.778000,90.614914 169.389603,91.807610 167.979401,92.694374 
	C167.659622,91.633606 167.361649,90.878769 167.063675,90.123940 
	C167.340698,89.575264 167.617706,89.026588 168.367996,88.198975 
	C168.896027,87.280281 168.950775,86.640526 169.005554,86.000763 
	C169.087662,83.294510 169.169785,80.588249 169.710175,77.439285 
	C173.471756,75.548897 170.664825,74.316444 170.027939,73.007553 
	C169.676804,61.067993 169.676804,61.052723 181.291321,61.050945 
	C190.218002,61.049583 199.144699,61.092911 208.527466,61.660118 
	C209.287994,65.122780 209.592438,68.041687 209.896881,70.960594 
	C209.919907,71.423866 209.942932,71.887146 209.828522,72.674210 
z"/>
<path fill="#0F0F0F" opacity="1.000000" stroke="none" 
	d="
M494.872314,250.712311 
	C499.710449,255.699860 503.734894,255.029877 505.908234,248.951599 
	C503.774109,248.697220 501.719238,248.452301 499.295197,248.163361 
	C499.551392,245.196121 499.788574,242.448990 500.076569,239.113007 
	C503.343719,239.113007 506.450073,239.113022 509.556427,239.113022 
	C512.515930,239.113022 515.475403,239.113007 519.148254,239.113007 
	C518.669495,247.480484 518.219666,255.341995 517.683533,264.712311 
	C514.300232,263.422852 511.685211,262.426270 508.672363,261.278046 
	C506.126099,262.115509 502.645172,263.960205 499.017609,264.318054 
	C489.370117,265.269775 482.711914,260.114899 480.584229,250.648132 
	C478.996155,243.582367 479.881470,236.702042 483.084656,230.254547 
	C488.025055,220.310272 499.721161,216.107742 509.903687,220.547607 
	C515.544556,223.007156 518.548218,227.455154 519.198303,234.279175 
	C515.092834,234.730774 511.206360,235.158264 507.168457,235.602402 
	C506.758392,234.706604 506.593811,233.801575 506.057281,233.276978 
	C504.422974,231.679031 502.610535,229.000763 500.932404,229.048035 
	C499.076294,229.100342 495.993805,231.491791 495.715271,233.228546 
	C494.815338,238.839813 494.958008,244.618286 494.872314,250.712311 
z"/>
<path fill="#0D0D0D" opacity="1.000000" stroke="none" 
	d="
M440.261658,227.280151 
	C446.908203,219.489655 456.738159,216.939453 465.160156,220.572723 
	C473.157013,224.022598 477.203796,232.234650 476.003845,242.577499 
	C474.366394,256.691376 466.106934,264.768707 453.605347,264.481995 
	C444.721313,264.278229 438.045685,259.084656 435.944336,250.421814 
	C433.963257,242.254868 435.303986,234.583466 440.261658,227.280151 
M462.138397,240.462997 
	C462.113770,238.810349 462.244934,237.137192 462.030884,235.509460 
	C461.630035,232.461777 460.871887,229.430344 457.093933,229.064529 
	C453.452820,228.711960 451.293213,231.140762 450.846039,234.215759 
	C450.096588,239.369614 449.681061,244.664276 450.042572,249.835541 
	C450.163086,251.559006 453.023804,254.268997 454.762787,254.374725 
	C456.554169,254.483643 459.310120,252.354202 460.196350,250.508896 
	C461.503052,247.787933 461.527924,244.451401 462.138397,240.462997 
z"/>
<path fill="#0D0D0D" opacity="1.000000" stroke="none" 
	d="
M389.849792,258.863403 
	C382.489807,265.002472 373.256348,266.259247 365.931732,262.336182 
	C359.030853,258.640076 355.412567,250.286453 356.631836,240.865219 
	C358.665283,225.152695 368.857086,216.701508 382.417755,219.483139 
	C390.170227,221.073364 395.569611,226.318100 396.853607,234.107315 
	C398.358582,243.236816 396.758240,251.657440 389.849792,258.863403 
M383.034210,243.225128 
	C382.993103,240.090836 383.459290,236.830933 382.725708,233.868103 
	C382.266113,232.011795 380.066498,229.382202 378.531342,229.301132 
	C376.613525,229.199844 373.606476,230.909760 372.800751,232.642639 
	C371.313660,235.840942 370.695557,239.595337 370.419250,243.172394 
	C369.872345,250.252258 371.901154,254.287750 375.586609,254.695618 
	C379.623077,255.142365 382.047150,251.683228 383.034210,243.225128 
z"/>
<path fill="#101010" opacity="1.000000" stroke="none" 
	d="
M214.805450,246.048492 
	C211.209839,246.048782 208.080215,246.048782 204.489197,246.048782 
	C204.302872,248.548218 204.147903,250.627106 203.939026,253.429077 
	C207.380447,253.429077 210.479828,253.429062 213.579224,253.429062 
	C216.546204,253.429062 219.513199,253.429077 222.591339,253.429077 
	C222.591339,257.041809 222.591339,260.108917 222.591339,263.519043 
	C211.974319,263.519043 201.724869,263.519043 190.559448,263.519043 
	C191.342575,249.125854 192.130554,234.643631 192.929688,219.956116 
	C203.776337,219.956116 214.190979,219.956116 224.648605,219.956116 
	C224.851715,220.567764 225.169769,221.035294 225.126251,221.466309 
	C224.110886,231.521317 226.239365,229.745071 216.319107,229.933731 
	C212.858871,229.999542 209.396332,229.944244 205.531189,229.944244 
	C205.327072,232.064621 205.158249,233.818283 204.930801,236.181122 
	C210.184052,236.181122 215.091171,236.181122 220.611496,236.181122 
	C220.360123,239.680893 220.152512,242.571335 219.921555,245.786728 
	C218.194626,245.883820 216.733017,245.966019 214.805450,246.048492 
z"/>
<path fill="#0F0F0F" opacity="1.000000" stroke="none" 
	d="
M227.586670,240.522491 
	C229.364319,225.422745 238.794601,217.159012 251.372269,219.287918 
	C260.352997,220.807999 265.037170,226.630569 264.824402,236.583847 
	C261.147491,236.842987 257.414825,237.106064 253.882462,237.355011 
	C253.452438,236.794769 253.115173,236.557953 253.089508,236.291168 
	C252.758301,232.848709 252.336700,229.258286 247.851547,229.149277 
	C243.559097,229.044968 242.263138,232.554642 241.831909,235.876373 
	C241.238251,240.449081 240.967407,245.141205 241.336517,249.719437 
	C241.466095,251.326660 243.658234,253.496017 245.343735,254.026794 
	C246.780472,254.479233 250.039780,253.364639 250.432663,252.229950 
	C253.089233,244.557587 258.868896,248.204971 264.422089,247.722061 
	C263.931915,249.805603 263.739380,251.375610 263.195343,252.812531 
	C260.022552,261.192719 252.160858,265.478943 242.232895,264.334839 
	C234.434647,263.436188 228.784775,257.525543 227.736221,248.912109 
	C227.417145,246.291031 227.590256,243.610031 227.586670,240.522491 
z"/>
<path fill="#0F0F0F" opacity="1.000000" stroke="none" 
	d="
M538.899292,263.867249 
	C536.474243,263.867554 534.511169,263.867554 532.517151,263.867554 
	C530.339966,256.182953 535.121033,248.485367 530.901672,241.169724 
	C527.099915,234.578003 523.999146,227.581970 519.906677,219.399689 
	C525.472595,219.874191 531.055176,218.808136 534.367920,221.068542 
	C537.644897,223.304550 538.630371,228.898911 541.072449,233.954865 
	C542.850220,230.906128 544.178345,228.705887 545.432251,226.464096 
	C549.749268,218.746216 550.206299,218.538483 560.153198,220.450211 
	C552.848511,234.063248 541.394592,246.091690 545.415527,263.561157 
	C542.591858,263.703796 540.976501,263.785370 538.899292,263.867249 
z"/>
<path fill="#101010" opacity="1.000000" stroke="none" 
	d="
M416.296387,252.636429 
	C421.654449,252.931427 426.627014,252.931427 431.919373,252.931427 
	C431.919373,256.590454 431.919373,259.832520 431.919373,263.475037 
	C421.885986,263.475037 412.185150,263.475037 401.710388,263.475037 
	C402.570312,249.096603 403.427704,234.761108 404.305542,220.083130 
	C408.572754,220.083130 412.625916,220.083130 415.910950,220.083130 
	C415.910950,230.907837 415.910950,241.624634 416.296387,252.636429 
z"/>
<path fill="#0E0E0E" opacity="1.000000" stroke="none" 
	d="
M163.382523,230.224487 
	C161.495132,230.143463 160.056824,230.063293 158.212219,229.960480 
	C158.474838,226.454346 158.706787,223.357727 158.957565,220.009689 
	C168.956833,220.009689 178.678513,220.009689 188.975769,220.009689 
	C188.799576,223.337143 188.630600,226.528336 188.448914,229.959656 
	C185.431931,230.133270 182.826065,230.283234 179.689545,230.463715 
	C178.961670,241.410919 178.238525,252.287277 177.493408,263.493958 
	C173.425476,263.493958 169.703903,263.493958 165.403061,263.493958 
	C165.918839,253.736328 166.429718,244.022507 166.947693,234.309067 
	C167.067947,232.053879 167.248077,229.772751 163.382523,230.224487 
z"/>
<path fill="#F6B81D" opacity="1.000000" stroke="none" 
	d="
M168.001221,93.000305 
	C169.389603,91.807610 170.778000,90.614914 172.870682,88.817184 
	C173.611053,91.872681 174.257919,94.542336 174.754166,97.699265 
	C174.390411,98.553131 174.177292,98.919731 173.964172,99.286331 
	C172.579712,99.529434 171.195267,99.772545 169.256622,99.758942 
	C168.129135,99.741600 167.555832,99.980980 166.982544,100.220367 
	C165.306381,100.522659 163.630203,100.824951 161.379242,100.920776 
	C160.200516,101.101570 159.596573,101.488838 158.992645,101.876114 
	C158.550720,101.934830 158.108795,101.993530 157.333984,101.598679 
	C157.000702,100.093437 157.000305,99.041756 156.999924,97.990074 
	C157.423935,97.719765 157.847931,97.449448 158.784271,97.006111 
	C159.532883,96.544250 159.769165,96.255409 160.005463,95.966568 
	C160.005463,95.966568 160.231293,95.767365 160.791183,95.849182 
	C161.900925,95.953995 162.450760,95.976997 163.344421,96.032516 
	C165.881577,96.956253 167.752777,97.174774 167.999603,93.750534 
	C168.000259,93.333740 168.000732,93.167023 168.001221,93.000305 
z"/>
<path fill="#101010" opacity="1.000000" stroke="none" 
	d="
M207.586975,115.027695 
	C201.602707,115.139343 195.254242,115.347122 188.954651,114.886528 
	C178.983215,114.157478 169.043625,112.989563 159.094131,111.972427 
	C158.481079,111.909767 157.899200,111.542465 157.134689,110.988480 
	C170.274551,111.722679 183.583344,112.775337 196.889969,113.854706 
	C200.345032,114.134956 203.793304,114.498665 207.586975,115.027695 
z"/>
<path fill="#101010" opacity="1.000000" stroke="none" 
	d="
M204.204407,144.662659 
	C204.123062,144.294159 204.450897,143.092545 204.789093,143.089630 
	C214.695236,143.003860 224.602539,143.022873 234.508957,143.107956 
	C234.888809,143.111221 235.261627,143.935150 235.430908,144.648621 
	C225.022186,144.743164 214.820297,144.565735 204.204407,144.662659 
z"/>
<path fill="#101010" opacity="1.000000" stroke="none" 
	d="
M272.073822,182.613129 
	C272.237640,176.378922 272.596375,169.795364 273.323242,163.097137 
	C273.217194,169.409592 272.742981,175.836670 272.073822,182.613129 
z"/>
<path fill="#7B7C7B" opacity="1.000000" stroke="none" 
	d="
M534.275330,114.961075 
	C533.866028,114.371704 533.894287,113.980858 533.961182,113.293228 
	C539.366638,113.326866 544.733398,113.657272 550.499939,114.278587 
	C550.827637,114.877693 550.780701,115.189674 550.758972,115.505447 
	C545.410278,115.390160 540.061584,115.274879 534.275330,114.961075 
z"/>
<path fill="#7B7C7B" opacity="1.000000" stroke="none" 
	d="
M399.334290,111.999466 
	C404.784698,111.707329 410.562683,111.654213 416.672485,111.837372 
	C411.223480,112.128586 405.442657,112.183540 399.334290,111.999466 
z"/>
<path fill="#101010" opacity="1.000000" stroke="none" 
	d="
M198.348572,196.605972 
	C198.600525,190.483658 199.227249,184.359222 200.211243,178.105072 
	C199.953461,184.184845 199.338409,190.394348 198.348572,196.605972 
z"/>
<path fill="#7B7C7B" opacity="1.000000" stroke="none" 
	d="
M444.337708,113.009277 
	C449.117584,112.718689 454.229370,112.658653 459.672638,112.833900 
	C454.892609,113.126068 449.781097,113.182953 444.337708,113.009277 
z"/>
<path fill="#7B7C7B" opacity="1.000000" stroke="none" 
	d="
M488.336823,114.005020 
	C492.785919,113.715752 497.565826,113.657089 502.674988,113.835358 
	C498.225372,114.126740 493.446533,114.181190 488.336823,114.005020 
z"/>
<path fill="#101010" opacity="1.000000" stroke="none" 
	d="
M142.593246,109.047913 
	C142.647125,109.930870 142.359344,110.633133 142.039246,111.620834 
	C139.169678,110.918900 136.332428,109.931534 133.495193,108.944168 
	C133.558807,108.698357 133.622437,108.452553 133.686050,108.206741 
	C136.541229,108.426903 139.396408,108.647057 142.593246,109.047913 
z"/>
<path fill="#F6BA2A" opacity="1.000000" stroke="none" 
	d="
M156.627136,97.941971 
	C157.000305,99.041756 157.000702,100.093437 157.003281,101.539291 
	C154.152100,102.385468 151.298721,102.837486 148.445328,103.289497 
	C148.288971,102.830826 148.132614,102.372154 147.976242,101.913490 
	C150.735611,100.573616 153.494980,99.233749 156.627136,97.941971 
z"/>
<path fill="#B2B3AD" opacity="1.000000" stroke="none" 
	d="
M551.211487,115.663513 
	C550.780701,115.189674 550.827637,114.877693 550.916260,114.332947 
	C554.345825,114.096413 557.759033,114.096413 561.172180,114.096413 
	C561.189575,114.671471 561.206909,115.246529 561.224243,115.821587 
	C558.037537,115.821587 554.850769,115.821587 551.211487,115.663513 
z"/>
<path fill="#7B7C7B" opacity="1.000000" stroke="none" 
	d="
M361.898071,110.942078 
	C365.203644,110.656265 368.772858,110.628311 372.673096,110.835770 
	C369.390015,111.114105 365.775848,111.157013 361.898071,110.942078 
z"/>
<path fill="#F6BA2A" opacity="1.000000" stroke="none" 
	d="
M210.129471,70.645195 
	C209.592438,68.041687 209.287994,65.122780 208.978058,61.787418 
	C209.572067,62.551365 210.538300,63.688629 210.683395,64.922470 
	C210.891006,66.687897 210.498383,68.523918 210.129471,70.645195 
z"/>
<path fill="#F2C657" opacity="1.000000" stroke="none" 
	d="
M539.461182,126.158646 
	C537.908569,125.651939 536.725464,125.179565 535.303223,124.479355 
	C537.674438,123.916809 540.284729,123.582085 542.895020,123.247353 
	C543.091553,123.723450 543.288086,124.199547 543.484558,124.675652 
	C542.266541,125.181427 541.048584,125.687210 539.461182,126.158646 
z"/>
<path fill="#F6BA2A" opacity="1.000000" stroke="none" 
	d="
M167.979401,92.694374 
	C168.000732,93.167023 168.000259,93.333740 167.629333,93.750061 
	C165.839462,94.666443 164.420029,95.333221 163.000610,96.000000 
	C162.450760,95.976997 161.900925,95.953995 160.939362,95.875954 
	C162.500244,93.998726 164.472855,92.176537 166.754578,90.239143 
	C167.361649,90.878769 167.659622,91.633606 167.979401,92.694374 
z"/>
<path fill="#101010" opacity="1.000000" stroke="none" 
	d="
M201.003204,175.602371 
	C200.855011,173.031906 200.895203,170.118973 201.289886,167.092804 
	C201.493454,169.739685 201.342529,172.499786 201.003204,175.602371 
z"/>
<path fill="#101010" opacity="1.000000" stroke="none" 
	d="
M271.100098,193.631531 
	C270.899902,191.046036 270.913086,188.127045 271.280975,185.093719 
	C271.528290,187.752258 271.420898,190.525131 271.100098,193.631531 
z"/>
<path fill="#101010" opacity="1.000000" stroke="none" 
	d="
M154.582245,110.084167 
	C152.366135,110.272156 149.813690,110.275017 147.113922,109.959671 
	C149.393036,109.727318 151.819458,109.813179 154.582245,110.084167 
z"/>
<path fill="#101010" opacity="1.000000" stroke="none" 
	d="
M274.022736,160.606476 
	C273.860901,158.376266 273.862701,155.795578 274.205933,153.094482 
	C274.427002,155.401382 274.306671,157.828690 274.022736,160.606476 
z"/>
<path fill="#101010" opacity="1.000000" stroke="none" 
	d="
M202.019592,164.606461 
	C201.872223,162.371170 201.892075,159.787323 202.258484,157.090332 
	C202.465637,159.404099 202.326233,161.830994 202.019592,164.606461 
z"/>
<path fill="#101010" opacity="1.000000" stroke="none" 
	d="
M276.043701,137.613342 
	C275.903778,135.370438 275.938660,132.781021 276.326477,130.086624 
	C276.525787,132.410034 276.372131,134.838425 276.043701,137.613342 
z"/>
<path fill="#101010" opacity="1.000000" stroke="none" 
	d="
M274.998535,149.599884 
	C274.853668,147.371124 274.867981,144.790710 275.225403,142.092712 
	C275.431580,144.399506 275.294647,146.823883 274.998535,149.599884 
z"/>
<path fill="#101010" opacity="1.000000" stroke="none" 
	d="
M203.005096,153.608353 
	C202.850128,151.703659 202.855881,149.454300 203.195404,147.089035 
	C203.408035,149.069992 203.286942,151.166824 203.005096,153.608353 
z"/>
<path fill="#101010" opacity="1.000000" stroke="none" 
	d="
M271.608490,121.038643 
	C270.026733,121.216270 268.120911,121.211891 266.091736,120.895660 
	C267.740387,120.674751 269.512421,120.765694 271.608490,121.038643 
z"/>
<path fill="#101010" opacity="1.000000" stroke="none" 
	d="
M261.603394,120.055710 
	C260.030365,120.243629 258.132935,120.251328 256.100861,119.956161 
	C257.737122,119.727356 259.508026,119.801422 261.603394,120.055710 
z"/>
<path fill="#F6BA2A" opacity="1.000000" stroke="none" 
	d="
M178.361877,98.802910 
	C179.494659,98.283127 180.997406,97.846298 182.734756,97.665878 
	C181.556854,98.243492 180.144333,98.564682 178.361877,98.802910 
z"/>
<path fill="#101010" opacity="1.000000" stroke="none" 
	d="
M153.863739,119.413757 
	C155.133423,120.254257 156.524719,121.403885 157.897522,122.927193 
	C156.581131,122.108208 155.283249,120.915558 153.863739,119.413757 
z"/>
<path fill="#101010" opacity="1.000000" stroke="none" 
	d="
M250.626602,119.021278 
	C249.369370,119.235298 247.801208,119.267250 246.099075,119.013054 
	C247.415298,118.764343 248.865479,118.801781 250.626602,119.021278 
z"/>
<path fill="#F6BA2A" opacity="1.000000" stroke="none" 
	d="
M169.834717,73.297096 
	C170.664825,74.316444 173.471756,75.548897 169.869141,77.018066 
	C169.593735,75.888596 169.617599,74.737617 169.834717,73.297096 
z"/>
<path fill="#101010" opacity="1.000000" stroke="none" 
	d="
M230.607513,117.090515 
	C229.362518,117.299187 227.807846,117.325264 226.109436,117.076721 
	C227.409729,116.837379 228.853806,116.872643 230.607513,117.090515 
z"/>
<path fill="#101010" opacity="1.000000" stroke="none" 
	d="
M240.618683,118.051872 
	C239.368393,118.269974 237.808441,118.304787 236.106903,118.061310 
	C237.413223,117.811531 238.861130,117.840057 240.618683,118.051872 
z"/>
<path fill="#F2C657" opacity="1.000000" stroke="none" 
	d="
M379.220154,196.566101 
	C379.157715,195.112625 379.450104,193.656570 380.011597,192.041992 
	C380.045441,193.443466 379.810181,195.003494 379.220154,196.566101 
z"/>
<path fill="#F2C657" opacity="1.000000" stroke="none" 
	d="
M464.772278,135.532623 
	C463.906921,136.000381 462.694153,136.332336 461.266357,136.440369 
	C462.175842,135.943222 463.300323,135.670029 464.772278,135.532623 
z"/>
<path fill="#F2C657" opacity="1.000000" stroke="none" 
	d="
M383.771088,148.527771 
	C382.903229,148.991135 381.688965,149.316589 380.260773,149.418350 
	C381.172791,148.926392 382.298737,148.658127 383.771088,148.527771 
z"/>
<path fill="#F2C657" opacity="1.000000" stroke="none" 
	d="
M389.772156,147.575165 
	C388.914246,148.042343 387.710297,148.368073 386.287994,148.481812 
	C387.188477,147.991104 388.307312,147.712402 389.772156,147.575165 
z"/>
<path fill="#101010" opacity="1.000000" stroke="none" 
	d="
M163.941788,145.334869 
	C164.166534,146.268951 164.255035,147.513931 164.078613,148.896530 
	C163.810989,147.904694 163.808258,146.775223 163.941788,145.334869 
z"/>
<path fill="#101010" opacity="1.000000" stroke="none" 
	d="
M218.650299,116.011673 
	C217.700882,116.241661 216.462616,116.284920 215.095032,116.063072 
	C216.097626,115.806961 217.229553,115.815948 218.650299,116.011673 
z"/>
<path fill="#F2C657" opacity="1.000000" stroke="none" 
	d="
M476.775146,133.569290 
	C475.915497,134.035889 474.710846,134.363617 473.287170,134.478256 
	C474.188843,133.986923 475.309479,133.708679 476.775146,133.569290 
z"/>
<path fill="#F2C657" opacity="1.000000" stroke="none" 
	d="
M382.119629,173.702576 
	C381.857025,172.711853 381.820190,171.441605 382.042999,170.026962 
	C382.316895,171.062729 382.331146,172.242889 382.119629,173.702576 
z"/>
<path fill="#F2C657" opacity="1.000000" stroke="none" 
	d="
M470.775696,134.579544 
	C469.905029,135.026093 468.690613,135.333618 467.261810,135.418884 
	C468.175598,134.944580 469.303772,134.692551 470.775696,134.579544 
z"/>
<path fill="#F2C657" opacity="1.000000" stroke="none" 
	d="
M458.770752,136.496796 
	C457.897278,136.957626 456.677704,137.284027 455.246674,137.379425 
	C456.165039,136.886398 457.294800,136.624374 458.770752,136.496796 
z"/>
<path fill="#F6BA2A" opacity="1.000000" stroke="none" 
	d="
M194.297745,96.656242 
	C194.869812,96.201462 195.753220,95.847847 196.814789,95.736816 
	C196.198334,96.238739 195.403702,96.498077 194.297745,96.656242 
z"/>
<path fill="#F2C657" opacity="1.000000" stroke="none" 
	d="
M343.882996,176.209305 
	C344.175659,176.922974 344.257538,177.829956 344.062378,178.895660 
	C343.747650,178.170456 343.709961,177.286545 343.882996,176.209305 
z"/>
<path fill="#F2C657" opacity="1.000000" stroke="none" 
	d="
M369.814758,150.662796 
	C369.220795,151.110413 368.324768,151.387146 367.248108,151.463287 
	C367.882568,151.005783 368.697632,150.748840 369.814758,150.662796 
z"/>
<path fill="#F2C657" opacity="1.000000" stroke="none" 
	d="
M376.807373,149.593567 
	C376.211517,150.035706 375.304382,150.323120 374.219116,150.396729 
	C374.859375,149.934891 375.677704,149.686874 376.807373,149.593567 
z"/>
<path fill="#F2C657" opacity="1.000000" stroke="none" 
	d="
M381.130737,185.784866 
	C380.820190,185.097198 380.705139,184.206436 380.849182,183.144409 
	C381.180908,183.842697 381.253571,184.712234 381.130737,185.784866 
z"/>
<path fill="#F2C657" opacity="1.000000" stroke="none" 
	d="
M401.809143,145.584396 
	C401.210175,146.015396 400.300171,146.302551 399.211823,146.371933 
	C399.855011,145.916290 400.676544,145.678421 401.809143,145.584396 
z"/>
<path fill="#F2C657" opacity="1.000000" stroke="none" 
	d="
M395.815796,146.637238 
	C395.205719,147.049576 394.289093,147.307495 393.200195,147.342285 
	C393.855011,146.907028 394.682098,146.694916 395.815796,146.637238 
z"/>
<path fill="#F2C657" opacity="1.000000" stroke="none" 
	d="
M531.811157,124.643555 
	C531.212585,125.076416 530.306030,125.349998 529.223022,125.411667 
	C529.865479,124.961266 530.684387,124.722763 531.811157,124.643555 
z"/>
<path fill="#F2C657" opacity="1.000000" stroke="none" 
	d="
M407.814087,144.623230 
	C407.211365,145.049057 406.301270,145.321915 405.214783,145.379272 
	C405.861145,144.932571 406.683929,144.701416 407.814087,144.623230 
z"/>
<path fill="#F2C657" opacity="1.000000" stroke="none" 
	d="
M413.812317,143.646011 
	C413.222351,144.090134 412.323975,144.378983 411.244141,144.462830 
	C411.876404,144.002136 412.690125,143.746445 413.812317,143.646011 
z"/>
<path fill="#F2C657" opacity="1.000000" stroke="none" 
	d="
M451.805786,137.531860 
	C451.205902,137.976547 450.292206,138.271988 449.201904,138.343201 
	C449.847534,137.873520 450.669739,137.628067 451.805786,137.531860 
z"/>
<path fill="#F2C657" opacity="1.000000" stroke="none" 
	d="
M488.805359,131.555145 
	C488.218018,132.004608 487.316101,132.316299 486.231628,132.416016 
	C486.863007,131.941833 487.676880,131.679611 488.805359,131.555145 
z"/>
<path fill="#101010" opacity="1.000000" stroke="none" 
	d="
M230.926544,194.249634 
	C231.380112,194.703445 231.706619,195.390472 232.027161,196.381195 
	C231.613983,195.950867 231.206741,195.216858 230.926544,194.249634 
z"/>
<path fill="#F2C657" opacity="1.000000" stroke="none" 
	d="
M481.843170,132.759796 
	C481.462769,133.141800 480.908203,133.358139 480.194702,133.365341 
	C480.580170,132.968842 481.124573,132.781494 481.843170,132.759796 
z"/>
<path fill="#F6BA2A" opacity="1.000000" stroke="none" 
	d="
M174.217789,99.411942 
	C174.177292,98.919731 174.390411,98.553131 174.801453,98.091843 
	C175.318085,98.094490 175.578140,98.275879 175.885742,98.757553 
	C175.485092,99.161705 174.978241,99.349625 174.217789,99.411942 
z"/>
<path fill="#F2C657" opacity="1.000000" stroke="none" 
	d="
M493.859894,130.723022 
	C493.511993,131.104095 492.907776,131.327057 492.171326,131.360870 
	C492.560577,130.969437 493.082062,130.767181 493.859894,130.723022 
z"/>
<path fill="#F2C657" opacity="1.000000" stroke="none" 
	d="
M499.841949,129.726257 
	C499.484009,130.139542 498.942627,130.393143 498.231750,130.449646 
	C498.594360,130.023895 499.126404,129.795242 499.841949,129.726257 
z"/>
<path fill="#F2C657" opacity="1.000000" stroke="none" 
	d="
M506.852966,128.595886 
	C506.513000,128.997375 505.905518,129.257080 505.161865,129.319733 
	C505.545654,128.899841 506.065521,128.676971 506.852966,128.595886 
z"/>
<path fill="#F2C657" opacity="1.000000" stroke="none" 
	d="
M512.848755,127.585312 
	C512.512085,127.994507 511.906036,128.261307 511.163727,128.330490 
	C511.544769,127.902885 512.062073,127.672913 512.848755,127.585312 
z"/>
<path fill="#F2C657" opacity="1.000000" stroke="none" 
	d="
M518.860107,126.668625 
	C518.511475,127.064346 517.903442,127.300049 517.163330,127.340546 
	C517.554443,126.933098 518.077637,126.720840 518.860107,126.668625 
z"/>
<path fill="#F2C657" opacity="1.000000" stroke="none" 
	d="
M524.848999,125.700165 
	C524.475769,126.106422 523.922241,126.346832 523.203430,126.380257 
	C523.581665,125.960281 524.125122,125.747307 524.848999,125.700165 
z"/>
<path fill="#F6BA2A" opacity="1.000000" stroke="none" 
	d="
M159.291412,101.936234 
	C159.596573,101.488838 160.200516,101.101570 160.950714,100.973183 
	C160.594711,101.486824 160.092438,101.741585 159.291412,101.936234 
z"/>
<path fill="#F6BA2A" opacity="1.000000" stroke="none" 
	d="
M167.231750,100.344070 
	C167.555832,99.980980 168.129135,99.741600 168.832428,99.698914 
	C168.468613,100.086334 167.974792,100.277054 167.231750,100.344070 
z"/>
<path fill="#F6BA2A" opacity="1.000000" stroke="none" 
	d="
M168.815948,86.206314 
	C168.950775,86.640526 168.896027,87.280281 168.574585,87.966766 
	C168.414047,87.479614 168.520203,86.945740 168.815948,86.206314 
z"/>
<path fill="#F2C657" opacity="1.000000" stroke="none" 
	d="
M342.875793,188.158691 
	C343.151794,188.599152 343.239685,189.191544 343.084167,189.912140 
	C342.789703,189.463776 342.738678,188.887222 342.875793,188.158691 
z"/>
<path fill="#101010" opacity="1.000000" stroke="none" 
	d="
M163.805847,137.220581 
	C164.095261,137.559692 164.296417,138.147003 164.296417,138.850555 
	C163.969376,138.467453 163.843491,137.968109 163.805847,137.220581 
z"/>
<path fill="#F2C657" opacity="1.000000" stroke="none" 
	d="
M444.855408,138.608902 
	C444.509583,139.007095 443.899475,139.256760 443.155884,139.307281 
	C443.545319,138.892212 444.068207,138.676285 444.855408,138.608902 
z"/>
<path fill="#F2C657" opacity="1.000000" stroke="none" 
	d="
M437.852814,139.646088 
	C437.526031,140.060165 436.930389,140.330856 436.194214,140.416321 
	C436.563782,139.988297 437.073853,139.745483 437.852814,139.646088 
z"/>
<path fill="#F2C657" opacity="1.000000" stroke="none" 
	d="
M431.856445,140.643585 
	C431.514191,141.036621 430.907867,141.284592 430.166870,141.338440 
	C430.552307,140.929062 431.072327,140.713806 431.856445,140.643585 
z"/>
<path fill="#101010" opacity="1.000000" stroke="none" 
	d="
M161.952820,170.254852 
	C162.163818,170.637192 162.229797,171.244934 162.078415,171.942184 
	C161.843292,171.514542 161.825531,170.997406 161.952820,170.254852 
z"/>
<path fill="#F2C657" opacity="1.000000" stroke="none" 
	d="
M425.855133,141.640656 
	C425.517517,142.042297 424.913757,142.298508 424.173401,142.362381 
	C424.554199,141.945114 425.071594,141.720154 425.855133,141.640656 
z"/>
<path fill="#F6BA2A" opacity="1.000000" stroke="none" 
	d="
M188.241165,97.473175 
	C188.560898,97.080406 189.138062,96.808784 189.849518,96.745506 
	C189.488739,97.167343 188.993668,97.380836 188.241165,97.473175 
z"/>
<path fill="#F2C657" opacity="1.000000" stroke="none" 
	d="
M419.858948,142.686447 
	C419.511871,143.069443 418.904724,143.300705 418.165100,143.338959 
	C418.554718,142.942200 419.076813,142.738464 419.858948,142.686447 
z"/>
<path fill="#101010" opacity="1.000000" stroke="none" 
	d="
M162.941391,160.252670 
	C163.148666,160.633636 163.220123,161.243713 163.072052,161.942902 
	C162.836868,161.515259 162.821213,160.998535 162.941391,160.252670 
z"/>
<path fill="#F2C657" opacity="1.000000" stroke="none" 
	d="
M356.856628,152.630798 
	C356.509369,153.030609 355.900879,153.274384 355.160431,153.321014 
	C355.550781,152.907501 356.073090,152.691116 356.856628,152.630798 
z"/>
<path fill="#F2C657" opacity="1.000000" stroke="none" 
	d="
M362.855591,151.664337 
	C362.519409,152.066635 361.917999,152.319641 361.179504,152.383667 
	C361.558411,151.968124 362.074371,151.741577 362.855591,151.664337 
z"/>
<path fill="#F2C657" opacity="1.000000" stroke="none" 
	d="
M342.444031,196.151398 
	C342.679474,196.014954 342.822174,196.117142 342.987244,196.387329 
	C343.044556,196.506607 342.665405,196.622009 342.665405,196.622009 
	C342.665405,196.622009 342.386200,196.341278 342.444031,196.151398 
z"/>
<path fill="#F6BA2A" opacity="1.000000" stroke="none" 
	d="
M159.708496,96.008804 
	C159.769165,96.255409 159.532883,96.544250 159.028610,96.937073 
	C158.977585,96.711037 159.194550,96.381035 159.708496,96.008804 
z"/>
<path fill="#F2C657" opacity="1.000000" stroke="none" 
	d="
M346.568237,156.821075 
	C346.706177,157.013458 346.614136,157.361649 346.289001,157.861816 
	C346.150024,157.668152 346.244141,157.322510 346.568237,156.821075 
z"/>
<path fill="#F2C657" opacity="1.000000" stroke="none" 
	d="
M350.665161,153.833252 
	C350.666199,154.098221 350.373505,154.372665 349.767853,154.594910 
	C349.760406,154.309372 350.065918,154.076035 350.665161,153.833252 
z"/>
<path fill="#F2F2F2" opacity="1.000000" stroke="none" 
	d="
M462.118591,240.920013 
	C461.527924,244.451401 461.503052,247.787933 460.196350,250.508896 
	C459.310120,252.354202 456.554169,254.483643 454.762787,254.374725 
	C453.023804,254.268997 450.163086,251.559006 450.042572,249.835541 
	C449.681061,244.664276 450.096588,239.369614 450.846039,234.215759 
	C451.293213,231.140762 453.452820,228.711960 457.093933,229.064529 
	C460.871887,229.430344 461.630035,232.461777 462.030884,235.509460 
	C462.244934,237.137192 462.113770,238.810349 462.118591,240.920013 
z"/>
<path fill="#F0F0F0" opacity="1.000000" stroke="none" 
	d="
M383.012451,243.677673 
	C382.047150,251.683228 379.623077,255.142365 375.586609,254.695618 
	C371.901154,254.287750 369.872345,250.252258 370.419250,243.172394 
	C370.695557,239.595337 371.313660,235.840942 372.800751,232.642639 
	C373.606476,230.909760 376.613525,229.199844 378.531342,229.301132 
	C380.066498,229.382202 382.266113,232.011795 382.725708,233.868103 
	C383.459290,236.830933 382.993103,240.090836 383.012451,243.677673 
z"/>
<path fill="#F7B81F" opacity="1.000000" stroke="none" 
	d="
M163.344421,96.032509 
	C164.420029,95.333221 165.839462,94.666443 167.629135,94.000137 
	C167.752777,97.174774 165.881577,96.956253 163.344421,96.032509 
z"/>
</svg>